<svg width="61" height="62" viewBox="0 0 61 62" fill="none" xmlns="http://www.w3.org/2000/svg">
<path d="M54.4103 51.0277L43.2004 39.634C45.8992 35.9822 47.3562 31.5373 47.3513 26.97C47.3513 15.3038 38.013 5.8125 26.535 5.8125C15.057 5.8125 5.71875 15.3038 5.71875 26.97C5.71875 38.6362 15.057 48.1275 26.535 48.1275C31.0286 48.1325 35.4019 46.6517 38.9947 43.9086L50.2047 55.3023C50.7721 55.8179 51.5122 56.0931 52.273 56.0714C53.0339 56.0498 53.7576 55.7329 54.2958 55.1859C54.834 54.6389 55.1458 53.9033 55.1671 53.13C55.1884 52.3567 54.9176 51.6044 54.4103 51.0277ZM11.6663 26.97C11.6663 23.981 12.5383 21.0592 14.1721 18.5739C15.8059 16.0887 18.1281 14.1517 20.845 13.0079C23.5619 11.864 26.5515 11.5648 29.4358 12.1479C32.32 12.731 34.9694 14.1703 37.0488 16.2838C39.1282 18.3974 40.5443 21.0902 41.1181 24.0217C41.6918 26.9532 41.3973 29.9919 40.2719 32.7533C39.1466 35.5147 37.2408 37.875 34.7956 39.5356C32.3505 41.1962 29.4758 42.0825 26.535 42.0825C22.593 42.0777 18.8138 40.4839 16.0264 37.6508C13.239 34.8177 11.671 30.9766 11.6663 26.97Z" fill="black"/>
</svg>
